<svg width="24" height="24" viewBox="0 0 24 24" fill="none" xmlns="http://www.w3.org/2000/svg">
<path d="M14.5 7C14.5 6.80109 14.579 6.61032 14.7197 6.46967C14.8603 6.32902 15.0511 6.25 15.25 6.25H21.25C21.4489 6.25 21.6397 6.32902 21.7803 6.46967C21.921 6.61032 22 6.80109 22 7C22 7.19891 21.921 7.38968 21.7803 7.53033C21.6397 7.67098 21.4489 7.75 21.25 7.75H15.25C15.0511 7.75 14.8603 7.67098 14.7197 7.53033C14.579 7.38968 14.5 7.19891 14.5 7ZM22.75 13.75C22.75 13.9489 22.671 14.1397 22.5303 14.2803C22.3897 14.421 22.1989 14.5 22 14.5H15.3438C15.5115 15.1434 15.8877 15.7132 16.4135 16.1202C16.9393 16.5273 17.5851 16.7487 18.25 16.75C18.6441 16.7519 19.0346 16.6749 19.3985 16.5236C19.7624 16.3722 20.0923 16.1496 20.3688 15.8688C20.5094 15.7285 20.6998 15.6497 20.8984 15.6497C21.097 15.6497 21.2875 15.7285 21.4281 15.8688C21.4987 15.9377 21.5548 16.0201 21.5931 16.1111C21.6314 16.202 21.6511 16.2997 21.6511 16.3984C21.6511 16.4971 21.6314 16.5948 21.5931 16.6858C21.5548 16.7768 21.4987 16.8591 21.4281 16.9281C21.0129 17.3487 20.518 17.6823 19.9722 17.9093C19.4265 18.1363 18.841 18.2521 18.25 18.25C17.36 18.25 16.49 17.9861 15.7499 17.4916C15.0099 16.9971 14.4331 16.2943 14.0925 15.4721C13.7519 14.6498 13.6628 13.745 13.8365 12.8721C14.0101 11.9992 14.4387 11.1974 15.068 10.568C15.6974 9.93868 16.4992 9.5101 17.3721 9.33647C18.245 9.16283 19.1498 9.25195 19.9721 9.59254C20.7943 9.93314 21.4971 10.5099 21.9916 11.2499C22.4861 11.99 22.75 12.86 22.75 13.75ZM21.1562 13C20.991 12.3547 20.6157 11.7827 20.0895 11.3743C19.5633 10.9658 18.9161 10.7441 18.25 10.7441C17.5839 10.7441 16.9367 10.9658 16.4105 11.3743C15.8843 11.7827 15.509 12.3547 15.3438 13H21.1562ZM12.625 14.3125C12.625 15.3568 12.2102 16.3583 11.4717 17.0967C10.7333 17.8352 9.73179 18.25 8.6875 18.25H2.5C2.30109 18.25 2.11032 18.171 1.96967 18.0303C1.82902 17.8897 1.75 17.6989 1.75 17.5V5.5C1.75 5.30109 1.82902 5.11032 1.96967 4.96967C2.11032 4.82902 2.30109 4.75 2.5 4.75H7.5625C8.24943 4.75096 8.92144 4.95051 9.49757 5.3246C10.0737 5.69869 10.5294 6.23137 10.8098 6.85848C11.0901 7.48559 11.1832 8.18039 11.0778 8.85919C10.9724 9.53798 10.673 10.1718 10.2156 10.6844C10.9296 10.985 11.539 11.4896 11.9676 12.135C12.3962 12.7803 12.6249 13.5378 12.625 14.3125ZM3.25 10.375H7.5625C8.10951 10.375 8.63411 10.1577 9.02091 9.77091C9.4077 9.38411 9.625 8.85951 9.625 8.3125C9.625 7.76549 9.4077 7.24089 9.02091 6.85409C8.63411 6.4673 8.10951 6.25 7.5625 6.25H3.25V10.375ZM11.125 14.3125C11.1225 13.6668 10.8649 13.0482 10.4083 12.5917C9.95176 12.1351 9.33321 11.8775 8.6875 11.875H3.25V16.75H8.6875C9.33321 16.7475 9.95176 16.4899 10.4083 16.0333C10.8649 15.5768 11.1225 14.9582 11.125 14.3125Z" fill="black"/>
</svg>
