<svg width="105" height="53" viewBox="0 0 105 53" fill="none" xmlns="http://www.w3.org/2000/svg">
<g clip-path="url(#clip0_98_367)">
<path d="M1.01153 49.7838C1.01195 49.3917 1.07125 49.0019 1.18745 48.6274C1.2925 48.2993 1.45644 47.9933 1.67122 47.7242C1.98357 47.3627 2.37294 47.0761 2.81061 46.8855C3.24828 46.6949 3.72309 46.6051 4.20001 46.6228C4.9323 46.6213 5.65233 46.8111 6.28902 47.1735V48.33C5.69731 47.909 4.99167 47.6785 4.26598 47.6691C3.72158 47.6587 3.19269 47.851 2.78169 48.2088C2.35945 48.6549 2.12409 49.2462 2.12409 49.861C2.12409 50.4757 2.35945 51.067 2.78169 51.5131C3.19106 51.8748 3.72013 52.0711 4.26598 52.0638C4.98999 52.0445 5.69282 51.8149 6.28902 51.4029V52.5594C5.65365 52.9239 4.93208 53.1103 4.20001 53.0991C3.55347 53.1146 2.91732 52.9342 2.37488 52.5814C1.80947 52.2243 1.38874 51.678 1.18745 51.0395C1.06003 50.6335 1.00059 50.2092 1.01153 49.7838Z" fill="black"/>
<path d="M7.7843 52.8679V46.7H8.88378V49.2442H11.7644V46.7H12.8639V52.8679H11.7644V50.2465H8.85079V52.8679H7.7843Z" fill="black"/>
<path d="M14.2932 49.7839C14.2981 49.4101 14.3574 49.0391 14.4691 48.6825C14.5742 48.3544 14.7381 48.0484 14.9529 47.7793C15.2625 47.4109 15.6488 47.1147 16.0847 46.9115C16.5205 46.7084 16.9955 46.6031 17.4762 46.6031C17.957 46.6031 18.4319 46.7084 18.8678 46.9115C19.3036 47.1147 19.6899 47.4109 19.9995 47.7793C20.4289 48.3758 20.66 49.0925 20.66 49.8279C20.66 50.5633 20.4289 51.2801 19.9995 51.8766C19.8007 52.1291 19.5632 52.3484 19.2958 52.5264C18.7511 52.8649 18.1228 53.0443 17.4817 53.0443C16.8406 53.0443 16.2123 52.8649 15.6676 52.5264C15.1011 52.1629 14.6777 51.6141 14.4691 50.9734C14.3486 50.5886 14.2892 50.1872 14.2932 49.7839ZM16.0414 51.4029C16.4317 51.7652 16.9441 51.9665 17.4762 51.9665C18.0083 51.9665 18.5207 51.7652 18.911 51.4029C19.1176 51.1888 19.2786 50.9349 19.3844 50.6566C19.4903 50.3783 19.5387 50.0814 19.5267 49.7839C19.5372 49.4881 19.488 49.1934 19.3823 48.9171C19.2765 48.6408 19.1162 48.3887 18.911 48.1758C18.5207 47.8135 18.0083 47.6123 17.4762 47.6123C16.9441 47.6123 16.4317 47.8135 16.0414 48.1758C15.8362 48.3887 15.6759 48.6408 15.5702 48.9171C15.4644 49.1934 15.4152 49.4881 15.4257 49.7839C15.4181 50.0838 15.4717 50.3821 15.5832 50.6605C15.6948 50.9389 15.8619 51.1915 16.0744 51.4029H16.0414Z" fill="black"/>
<path d="M21.8356 49.7839C21.836 49.3917 21.8953 49.0019 22.0115 48.6274C22.1174 48.3019 22.2772 47.9966 22.4843 47.7242C22.7998 47.3637 23.1913 47.0779 23.6306 46.8875C24.0698 46.697 24.5457 46.6066 25.0241 46.6228C25.7531 46.6196 26.47 46.8096 27.1021 47.1735V48.33C26.5113 47.9071 25.8051 47.6764 25.0791 47.6692C24.5384 47.6615 24.0139 47.8536 23.6058 48.2089C23.1835 48.6549 22.9482 49.2463 22.9482 49.861C22.9482 50.4757 23.1835 51.067 23.6058 51.5131C24.0123 51.8723 24.537 52.0684 25.0791 52.0638C25.8036 52.0477 26.5073 51.8178 27.1021 51.403V52.5594C26.4712 52.925 25.7528 53.1116 25.0241 53.0991C24.3775 53.1147 23.7414 52.9342 23.1989 52.5815C22.6335 52.2244 22.2128 51.678 22.0115 51.0395C21.8841 50.6335 21.8247 50.2093 21.8356 49.7839Z" fill="black"/>
<path d="M28.2565 49.7839C28.2563 49.4097 28.3156 49.0379 28.4325 48.6825C28.5331 48.3526 28.6975 48.0457 28.9162 47.7793C29.2215 47.4087 29.6067 47.1121 30.0427 46.9118C30.4788 46.7115 30.9544 46.6127 31.434 46.6228C32.0335 46.6455 32.6154 46.8316 33.1172 47.1609C33.619 47.4903 34.0216 47.9505 34.2817 48.492C34.5418 49.0336 34.6496 49.6359 34.5934 50.2342C34.5372 50.8325 34.3192 51.4042 33.9628 51.8876C33.7628 52.1429 33.5212 52.3626 33.2482 52.5374C32.7066 52.8832 32.0762 53.0631 31.434 53.0551C30.7919 53.0631 30.1614 52.8832 29.6199 52.5374C29.0563 52.1734 28.6365 51.6244 28.4325 50.9844C28.3048 50.5975 28.2452 50.1913 28.2565 49.7839ZM30.0047 51.403C30.3932 51.7645 30.9038 51.9654 31.434 51.9654C31.9643 51.9654 32.4749 51.7645 32.8633 51.403C33.0719 51.1897 33.2349 50.9362 33.3427 50.6579C33.4504 50.3796 33.5006 50.0822 33.49 49.7839C33.4991 49.4874 33.4482 49.1921 33.3405 48.9158C33.2328 48.6395 33.0705 48.3878 32.8633 48.1758C32.4749 47.8143 31.9643 47.6134 31.434 47.6134C30.9038 47.6134 30.3932 47.8143 30.0047 48.1758C29.7995 48.3887 29.6393 48.6408 29.5335 48.9171C29.4277 49.1934 29.3786 49.4882 29.389 49.7839C29.3771 50.0814 29.4255 50.3783 29.5313 50.6566C29.6371 50.9349 29.7982 51.1888 30.0047 51.403Z" fill="black"/>
<path d="M36.1178 52.8679V46.7H37.2173V51.8325H40.1089V52.8679H36.1178Z" fill="black"/>
<path d="M40.9775 52.8679L43.4073 46.7H44.6277L47.0576 52.8679H45.9581L45.4084 51.447H42.6487L42.1099 52.8679H40.9775ZM43.0225 50.4778H44.9906L43.979 47.9225L43.0225 50.4778Z" fill="black"/>
<path d="M47.1016 47.7242V46.733H52.1811V47.7242H50.1801V52.9009H49.0806V47.7242H47.1016Z" fill="black"/>
<path d="M53.6324 52.8679V46.7H57.5576V47.7243H54.6769V49.3543H57.2937V50.3236H54.6769V51.9537H57.5576V52.9229L53.6324 52.8679Z" fill="black"/>
<path d="M61.6476 49.7839C61.6426 49.3913 61.702 49.0006 61.8236 48.6274C61.925 48.3001 62.0852 47.994 62.2963 47.7242C62.6144 47.358 63.0111 47.0687 63.4566 46.878C63.9022 46.6873 64.3851 46.6 64.8691 46.6228C65.6016 46.6198 66.322 46.8097 66.9581 47.1735V48.33C66.3664 47.909 65.6608 47.6785 64.9351 47.6692C64.3907 47.6588 63.8618 47.8511 63.4508 48.2089C63.0358 48.6586 62.8054 49.2485 62.8054 49.861C62.8054 50.4734 63.0358 51.0633 63.4508 51.5131C63.8602 51.8749 64.3892 52.0712 64.9351 52.0638C65.6594 52.0464 66.3628 51.8166 66.9581 51.4029V52.5594C66.3227 52.9239 65.6012 53.1103 64.8691 53.0991C64.2227 53.1133 63.587 52.933 63.044 52.5815C62.482 52.2231 62.0652 51.6767 61.8675 51.0395C61.7189 50.6377 61.6444 50.2123 61.6476 49.7839Z" fill="black"/>
<path d="M68.0576 49.7839C68.0625 49.4101 68.1217 49.0391 68.2335 48.6825C68.3432 48.3564 68.5067 48.0511 68.7173 47.7793C69.0269 47.4109 69.4132 47.1147 69.849 46.9115C70.2849 46.7084 70.7598 46.6031 71.2406 46.6031C71.7213 46.6031 72.1963 46.7084 72.6321 46.9115C73.068 47.1147 73.4543 47.4109 73.7639 47.7793C74.1933 48.3758 74.4243 49.0925 74.4243 49.8279C74.4243 50.5633 74.1933 51.2801 73.7639 51.8766C73.5679 52.1317 73.3299 52.3514 73.0602 52.5264C72.5155 52.8649 71.8871 53.0443 71.2461 53.0443C70.605 53.0443 69.9767 52.8649 69.4319 52.5264C68.8685 52.1595 68.446 51.612 68.2335 50.9734C68.1129 50.5886 68.0536 50.1872 68.0576 49.7839ZM69.8058 51.4029C70.196 51.7652 70.7085 51.9665 71.2406 51.9665C71.7727 51.9665 72.2851 51.7652 72.6754 51.4029C72.8819 51.1888 73.043 50.9349 73.1488 50.6566C73.2546 50.3783 73.3031 50.0814 73.2911 49.7839C73.3016 49.4881 73.2524 49.1934 73.1466 48.9171C73.0408 48.6408 72.8806 48.3887 72.6754 48.1758C72.2851 47.8135 71.7727 47.6123 71.2406 47.6123C70.7085 47.6123 70.196 47.8135 69.8058 48.1758C69.6006 48.3887 69.4403 48.6408 69.3345 48.9171C69.2287 49.1934 69.1796 49.4881 69.1901 49.7839C69.1781 50.0814 69.2265 50.3783 69.3323 50.6566C69.4382 50.9349 69.5992 51.1888 69.8058 51.4029Z" fill="black"/>
<path d="M75.9189 52.8679V46.7H77.0183L79.1623 50.1474L81.3613 46.7H82.4607V52.8679H81.3613V48.4622L79.1623 51.9427L76.9634 48.4622V52.8679H75.9189Z" fill="black"/>
<path d="M86.4958 52.8679L88.9257 46.7H90.1571L92.5869 52.8679H91.4874L90.9267 51.447H88.167L87.6393 52.8679H86.4958ZM88.5408 50.4778H90.5089L89.5194 47.9225L88.5408 50.4778Z" fill="black"/>
<path d="M93.2136 52.8679L95.2806 49.7288L93.3126 46.7H94.555L95.9293 48.9028L97.3037 46.7H98.5681L96.611 49.7288L98.634 52.8679H97.4136L95.9623 50.5549L94.478 52.8679H93.2136Z" fill="black"/>
<path d="M99.9644 52.8679V46.7H103.89V47.7243H101.009V49.3543H103.615V50.3236H101.009V51.9537H103.89V52.9229L99.9644 52.8679ZM101.57 46.0501L102.24 44.7174H103.417L102.317 46.0501H101.57Z" fill="black"/>
<path d="M101.152 35.7849H3.80419C2.79526 35.7849 1.82764 35.3834 1.11422 34.6687C0.400797 33.9541 0 32.9847 0 31.974L0 3.81089C0 2.80018 0.400797 1.83087 1.11422 1.11619C1.82764 0.401505 2.79526 0 3.80419 0H101.152C102.161 0 103.128 0.401505 103.842 1.11619C104.555 1.83087 104.956 2.80018 104.956 3.81089V31.974C104.956 32.9847 104.555 33.9541 103.842 34.6687C103.128 35.3834 102.161 35.7849 101.152 35.7849ZM3.80419 1.37677C3.15975 1.37677 2.54171 1.63322 2.08603 2.0897C1.63035 2.54619 1.37435 3.16532 1.37435 3.81089V31.974C1.37435 32.6196 1.63035 33.2387 2.08603 33.6952C2.54171 34.1517 3.15975 34.4082 3.80419 34.4082H101.152C101.796 34.4082 102.414 34.1517 102.87 33.6952C103.326 33.2387 103.582 32.6196 103.582 31.974V3.81089C103.582 3.16532 103.326 2.54619 102.87 2.0897C102.414 1.63322 101.796 1.37677 101.152 1.37677H3.80419Z" fill="black"/>
<path d="M69.9817 0.693909H68.6073V35.0029H69.9817V0.693909Z" fill="black"/>
<path d="M86.8586 27.282L86.5068 26.9956C86.188 26.7313 78.9204 20.5854 78.9204 14.2413H80.0199C80.0199 19.3188 85.4073 24.5285 86.8586 25.8392C88.2989 24.5285 93.6864 19.3188 93.6864 14.2413H94.7859C94.7859 20.5854 87.5183 26.7313 87.2105 26.9956L86.8586 27.282Z" fill="black"/>
<path d="M86.8586 19.7263C82.4607 19.7263 78.9204 17.2701 78.9204 14.2192C78.9204 11.1683 82.4827 8.71216 86.8586 8.71216C91.2345 8.71216 94.7859 11.1683 94.7859 14.2192C94.7859 17.2701 91.1686 19.7263 86.8586 19.7263ZM86.8586 9.81357C83.0874 9.81357 80.0199 11.7741 80.0199 14.2192C80.0199 16.6644 83.0874 18.6249 86.8586 18.6249C90.6298 18.6249 93.6864 16.6533 93.6864 14.2192C93.6864 11.7851 90.5639 9.86864 86.8586 9.86864V9.81357Z" fill="black"/>
<path d="M87.3534 19.1756H86.2539V26.5661H87.3534V19.1756Z" fill="black"/>
<path d="M83.5532 18.2441L82.5563 18.7087L86.3084 26.7876L87.3052 26.323L83.5532 18.2441Z" fill="black"/>
<path d="M90.0458 18.2442L86.2924 26.3224L87.2891 26.7872L91.0426 18.709L90.0458 18.2442Z" fill="black"/>
<path d="M86.6937 15.8934L85.6272 17.2591L85.6932 15.5299L84 15.8934L85.1654 14.6047L83.6372 13.8007L85.3524 13.5584L84.6927 11.9503L86.155 12.8755L86.6937 11.2234L87.2215 12.8755L88.6838 11.9503L88.0351 13.5584L89.7503 13.8007L88.222 14.6047L89.3764 15.8934L87.6833 15.5299L87.7492 17.2591L86.6937 15.8934Z" fill="black"/>
<path d="M24.1885 26.4559L20.6921 20.6735L18.845 22.3917V26.4449H16.5691V10.8929H18.845V19.7924L23.5398 15.1334H26.4424L22.2314 19.1535L26.6293 26.4559H24.1885Z" fill="black"/>
<path d="M38.6136 19.6051V26.4559H36.4916V24.6606H36.3817C36.0634 25.3158 35.5553 25.8597 34.9237 26.2213C34.2922 26.5828 33.5665 26.7452 32.8413 26.6872C30.9063 26.6872 29.1361 25.762 29.1361 23.6253C29.1361 21.2903 31.1591 20.3211 33.534 19.7043L36.2937 19.0544V18.9443C36.3255 18.623 36.2838 18.2987 36.1718 17.9959C36.0598 17.6932 35.8804 17.4199 35.6472 17.197C35.4141 16.9741 35.1333 16.8073 34.8262 16.7092C34.5191 16.6112 34.1938 16.5846 33.8749 16.6313C33.5273 16.6057 33.1781 16.6517 32.849 16.7666C32.5198 16.8814 32.2177 17.0626 31.9611 17.2989C31.7046 17.5353 31.4991 17.8218 31.3574 18.1407C31.2157 18.4597 31.1407 18.8044 31.1372 19.1536L29.0921 18.7791C29.411 16.3119 31.2911 14.9021 33.9188 14.9021C36.2937 14.9021 37.767 15.8273 38.3167 17.4684C38.5515 18.155 38.6523 18.8804 38.6136 19.6051ZM36.4696 20.5964L33.9848 21.2903C32.2146 21.6868 31.412 22.3036 31.412 23.416C31.412 24.5284 32.0827 24.9139 33.2482 24.9139C35.1173 24.9139 36.3817 23.2728 36.4696 20.5964Z" fill="black"/>
<path d="M53.3906 21.2903H44.2759C44.2609 21.7674 44.343 22.2427 44.5174 22.687C44.6918 23.1312 44.9547 23.5352 45.2901 23.8743C45.6255 24.2134 46.0264 24.4805 46.4683 24.6593C46.9102 24.838 47.3838 24.9247 47.8602 24.9139C48.5145 24.9333 49.1598 24.7573 49.7139 24.4081C50.268 24.059 50.7058 23.5526 50.9717 22.9534L53.0607 23.2728C52.6828 24.3278 51.9767 25.2332 51.0464 25.8559C50.1161 26.4785 49.0107 26.7854 47.8932 26.7313C47.1059 26.7872 46.3159 26.6727 45.5767 26.3955C44.8375 26.1183 44.1666 25.6849 43.6096 25.1248C43.0526 24.5647 42.6224 23.891 42.3485 23.1495C42.0745 22.408 41.9632 21.6162 42.022 20.8277C41.9821 20.0551 42.1026 19.2826 42.3758 18.559C42.6491 17.8354 43.0692 17.1764 43.6096 16.6237C44.1499 16.0709 44.7989 15.6365 45.5154 15.3478C46.2319 15.059 47.0003 14.9223 47.7723 14.9462C48.5368 14.9096 49.3004 15.0362 50.0124 15.3178C50.7244 15.5994 51.3684 16.0295 51.9018 16.5794C52.4352 17.1294 52.8458 17.7867 53.1062 18.5077C53.3667 19.2288 53.4711 19.9971 53.4126 20.7616L53.3906 21.2903ZM44.3639 19.5831H51.1147C51.0288 18.7771 50.6403 18.0339 50.0278 17.5042C49.4153 16.9745 48.6247 16.6979 47.8162 16.7305C46.9948 16.6829 46.1852 16.9446 45.5465 17.4642C44.9077 17.9838 44.4859 18.7239 44.3639 19.5391V19.5831Z" fill="black"/>
<path d="M50.0811 6.81775V6.89485C50.0811 7.52289 49.8321 8.12521 49.3888 8.5693C48.9455 9.0134 48.3442 9.26289 47.7173 9.26289C47.0903 9.26289 46.4891 9.0134 46.0458 8.5693C45.6024 8.12521 45.3534 7.52289 45.3534 6.89485V6.81775H43.5612V6.89485C43.5612 7.99903 43.9991 9.058 44.7785 9.83878C45.5579 10.6196 46.615 11.0582 47.7173 11.0582C48.8195 11.0582 49.8766 10.6196 50.656 9.83878C51.4354 9.058 51.8733 7.99903 51.8733 6.89485V6.81775H50.0811Z" fill="black"/>
</g>
<defs>
<clipPath id="clip0_98_367">
<rect width="105" height="53" fill="white"/>
</clipPath>
</defs>
</svg>
